<svg width="126" height="126" viewBox="0 0 126 126" fill="none" xmlns="http://www.w3.org/2000/svg">
<path d="M39.7498 90.8739L22.8637 100.085C21.8728 100.625 20.9822 101.289 20.1536 102.013C29.9987 110.314 42.7076 115.322 56.5933 115.322C70.3764 115.322 83.0041 110.389 92.8215 102.201C91.916 101.437 90.9336 100.749 89.8444 100.206L71.7624 91.1665C69.426 89.9984 67.9503 87.6108 67.9503 84.9989V77.9045C68.4586 77.3257 69.0395 76.5826 69.6609 75.7048C72.1254 72.2238 73.9898 68.3947 75.2818 64.3776C77.6011 63.6622 79.3096 61.5202 79.3096 58.9746V51.4018C79.3096 49.736 78.5685 48.2475 77.4174 47.2053V36.2583C77.4174 36.2583 79.6662 19.2227 56.5954 19.2227C33.5246 19.2227 35.7734 36.2583 35.7734 36.2583V47.2053C34.6201 48.2475 33.8812 49.736 33.8812 51.4018V58.9746C33.8812 60.9692 34.9298 62.7247 36.4995 63.7391C38.3916 71.9761 43.3462 77.9045 43.3462 77.9045V84.8238C43.344 87.3438 41.9644 89.6652 39.7498 90.8739Z" fill="#F6F7FB"/>
<path d="M57.5607 2.14417C26.3105 1.61027 0.542453 26.5092 0.00855504 57.7614C-0.294699 75.4783 7.60272 91.4034 20.1771 101.996C20.9993 101.278 21.8813 100.621 22.8615 100.087L39.7477 90.8759C41.9623 89.6672 43.3419 87.3458 43.3419 84.8215V77.9022C43.3419 77.9022 38.3852 71.9738 36.4952 63.7368C34.9276 62.7224 33.8769 60.9691 33.8769 58.9723V51.3995C33.8769 49.7337 34.618 48.2452 35.7691 47.2031V36.256C35.7691 36.256 33.5203 19.2204 56.5911 19.2204C79.6619 19.2204 77.4131 36.256 77.4131 36.256V47.2031C78.5664 48.2452 79.3053 49.7337 79.3053 51.3995V58.9723C79.3053 61.5179 77.5968 63.6599 75.2775 64.3754C73.9855 68.3924 72.1211 72.2215 69.6567 75.7026C69.0352 76.5803 68.4543 77.3235 67.946 77.9022V84.9967C67.946 87.6085 69.4217 89.9982 71.7581 91.1642L89.8401 100.204C90.925 100.747 91.9053 101.432 92.8086 102.195C105.003 92.0249 112.881 76.8195 113.174 59.6963C113.712 28.4461 88.8129 2.67807 57.5607 2.14417Z" fill="#B9B9B9"/>
<path d="M98.6271 124.254C112.781 124.254 124.254 112.781 124.254 98.6271C124.254 84.4737 112.781 73 98.6271 73C84.4737 73 73 84.4737 73 98.6271C73 112.781 84.4737 124.254 98.6271 124.254Z" fill="#399A3A"/>
<path d="M111.848 87.3835C110.876 86.7086 109.548 86.9478 108.875 87.9174L96.924 105.088L88.4906 98.164C87.5808 97.4144 86.2333 97.5489 85.4858 98.4608C84.7362 99.3727 84.8686 100.718 85.7826 101.466L96.0036 109.856C96.388 110.17 96.8664 110.341 97.3576 110.341C97.4537 110.341 97.5519 110.335 97.6501 110.322C98.2396 110.239 98.7692 109.916 99.1109 109.427L112.381 90.3584C113.054 89.3888 112.815 88.0583 111.848 87.3835Z" fill="white"/>
</svg>
